<mxfile host="app.diagrams.net" modified="2024-01-13T03:03:26.346Z" agent="Mozilla/5.0 (X11; Linux x86_64) AppleWebKit/537.36 (KHTML, like Gecko) Chrome/120.0.0.0 Safari/537.36" etag="d2Y8gEsJGNsGIrQFXyvD" version="22.1.18" type="device">
  <diagram name="PÃ¡gina-1" id="PF86nsjTBy9hFdr93POE">
    <mxGraphModel dx="652" dy="327" grid="1" gridSize="10" guides="1" tooltips="1" connect="1" arrows="1" fold="1" page="1" pageScale="1" pageWidth="1169" pageHeight="827" math="0" shadow="0">
      <root>
        <mxCell id="0" />
        <mxCell id="1" parent="0" />
        <mxCell id="c1uVNCo_Iyz2JjiFWo5f-37" value="Notificacion" style="swimlane;fontStyle=0;childLayout=stackLayout;horizontal=1;startSize=30;horizontalStack=0;resizeParent=1;resizeParentMax=0;resizeLast=0;collapsible=1;marginBottom=0;whiteSpace=wrap;html=1;" vertex="1" parent="1">
          <mxGeometry x="880" y="130" width="185" height="120" as="geometry" />
        </mxCell>
        <mxCell id="c1uVNCo_Iyz2JjiFWo5f-38" value="x te ha seguido" style="text;strokeColor=none;fillColor=none;align=left;verticalAlign=middle;spacingLeft=4;spacingRight=4;overflow=hidden;points=[[0,0.5],[1,0.5]];portConstraint=eastwest;rotatable=0;whiteSpace=wrap;html=1;" vertex="1" parent="c1uVNCo_Iyz2JjiFWo5f-37">
          <mxGeometry y="30" width="185" height="30" as="geometry" />
        </mxCell>
        <mxCell id="c1uVNCo_Iyz2JjiFWo5f-39" value="lauty1234 te ha seguido" style="text;strokeColor=none;fillColor=none;align=left;verticalAlign=middle;spacingLeft=4;spacingRight=4;overflow=hidden;points=[[0,0.5],[1,0.5]];portConstraint=eastwest;rotatable=0;whiteSpace=wrap;html=1;" vertex="1" parent="c1uVNCo_Iyz2JjiFWo5f-37">
          <mxGeometry y="60" width="185" height="30" as="geometry" />
        </mxCell>
        <mxCell id="c1uVNCo_Iyz2JjiFWo5f-40" value="illojuan te ha seguido" style="text;strokeColor=none;fillColor=none;align=left;verticalAlign=middle;spacingLeft=4;spacingRight=4;overflow=hidden;points=[[0,0.5],[1,0.5]];portConstraint=eastwest;rotatable=0;whiteSpace=wrap;html=1;" vertex="1" parent="c1uVNCo_Iyz2JjiFWo5f-37">
          <mxGeometry y="90" width="185" height="30" as="geometry" />
        </mxCell>
        <mxCell id="c1uVNCo_Iyz2JjiFWo5f-57" value="" style="endArrow=classic;html=1;rounded=0;exitX=1;exitY=0.5;exitDx=0;exitDy=0;" edge="1" parent="1" source="c1uVNCo_Iyz2JjiFWo5f-51">
          <mxGeometry width="50" height="50" relative="1" as="geometry">
            <mxPoint x="500" y="130" as="sourcePoint" />
            <mxPoint x="550" y="230" as="targetPoint" />
            <Array as="points">
              <mxPoint x="550" y="100" />
            </Array>
          </mxGeometry>
        </mxCell>
        <mxCell id="c1uVNCo_Iyz2JjiFWo5f-58" value="False" style="text;html=1;strokeColor=none;fillColor=none;align=center;verticalAlign=middle;whiteSpace=wrap;rounded=0;" vertex="1" parent="1">
          <mxGeometry x="490" y="184" width="60" height="30" as="geometry" />
        </mxCell>
        <mxCell id="c1uVNCo_Iyz2JjiFWo5f-60" value="" style="swimlane;startSize=0;" vertex="1" parent="1">
          <mxGeometry x="270" y="20" width="580" height="710" as="geometry" />
        </mxCell>
        <mxCell id="c1uVNCo_Iyz2JjiFWo5f-111" style="edgeStyle=orthogonalEdgeStyle;rounded=0;orthogonalLoop=1;jettySize=auto;html=1;exitX=0.5;exitY=0;exitDx=0;exitDy=0;entryX=0.5;entryY=0;entryDx=0;entryDy=0;" edge="1" parent="c1uVNCo_Iyz2JjiFWo5f-60">
          <mxGeometry relative="1" as="geometry">
            <mxPoint x="299.9999999999998" y="250" as="sourcePoint" />
            <mxPoint x="299.9999999999998" y="250" as="targetPoint" />
          </mxGeometry>
        </mxCell>
        <mxCell id="c1uVNCo_Iyz2JjiFWo5f-56" value="&lt;font color=&quot;#009900&quot;&gt;True&lt;/font&gt;" style="text;html=1;strokeColor=none;fillColor=none;align=center;verticalAlign=middle;whiteSpace=wrap;rounded=0;" vertex="1" parent="c1uVNCo_Iyz2JjiFWo5f-60">
          <mxGeometry x="80" y="120" width="50" height="30" as="geometry" />
        </mxCell>
        <mxCell id="c1uVNCo_Iyz2JjiFWo5f-113" value="" style="endArrow=classic;html=1;rounded=0;exitX=0.5;exitY=1;exitDx=0;exitDy=0;entryX=0.5;entryY=0;entryDx=0;entryDy=0;" edge="1" parent="c1uVNCo_Iyz2JjiFWo5f-60">
          <mxGeometry width="50" height="50" relative="1" as="geometry">
            <mxPoint x="300" y="230" as="sourcePoint" />
            <mxPoint x="299.9999999999998" y="250" as="targetPoint" />
          </mxGeometry>
        </mxCell>
        <mxCell id="c1uVNCo_Iyz2JjiFWo5f-114" value="existe el seguimiento&lt;br&gt;&quot;user_a sigue a user_b&quot;&amp;nbsp;" style="rhombus;whiteSpace=wrap;html=1;" vertex="1" parent="c1uVNCo_Iyz2JjiFWo5f-60">
          <mxGeometry x="200" y="180" width="200" height="90" as="geometry" />
        </mxCell>
        <mxCell id="c1uVNCo_Iyz2JjiFWo5f-123" value="" style="ellipse;html=1;shape=endState;fillColor=#000000;strokeColor=#ff0000;" vertex="1" parent="c1uVNCo_Iyz2JjiFWo5f-60">
          <mxGeometry x="120" y="160" width="30" height="30" as="geometry" />
        </mxCell>
        <mxCell id="c1uVNCo_Iyz2JjiFWo5f-51" value="existe la amistad entre&lt;br&gt;&amp;nbsp;user_a y user_b&amp;nbsp;" style="rhombus;whiteSpace=wrap;html=1;" vertex="1" parent="c1uVNCo_Iyz2JjiFWo5f-60">
          <mxGeometry x="25" y="40" width="220" height="80" as="geometry" />
        </mxCell>
        <mxCell id="c1uVNCo_Iyz2JjiFWo5f-122" value="" style="endArrow=classic;html=1;rounded=0;exitX=0.5;exitY=1;exitDx=0;exitDy=0;entryX=0.5;entryY=0;entryDx=0;entryDy=0;" edge="1" parent="c1uVNCo_Iyz2JjiFWo5f-60" source="c1uVNCo_Iyz2JjiFWo5f-51" target="c1uVNCo_Iyz2JjiFWo5f-123">
          <mxGeometry width="50" height="50" relative="1" as="geometry">
            <mxPoint x="140" y="170" as="sourcePoint" />
            <mxPoint x="190" y="120" as="targetPoint" />
          </mxGeometry>
        </mxCell>
        <mxCell id="c1uVNCo_Iyz2JjiFWo5f-125" value="&lt;font color=&quot;#009900&quot;&gt;True&lt;/font&gt;" style="text;html=1;strokeColor=none;fillColor=none;align=center;verticalAlign=middle;whiteSpace=wrap;rounded=0;" vertex="1" parent="c1uVNCo_Iyz2JjiFWo5f-60">
          <mxGeometry x="245" y="270" width="50" height="30" as="geometry" />
        </mxCell>
        <mxCell id="c1uVNCo_Iyz2JjiFWo5f-126" value="" style="endArrow=classic;html=1;rounded=0;exitX=0.5;exitY=1;exitDx=0;exitDy=0;entryX=0.5;entryY=0;entryDx=0;entryDy=0;" edge="1" parent="c1uVNCo_Iyz2JjiFWo5f-60">
          <mxGeometry width="50" height="50" relative="1" as="geometry">
            <mxPoint x="300" y="270" as="sourcePoint" />
            <mxPoint x="300" y="310" as="targetPoint" />
          </mxGeometry>
        </mxCell>
        <mxCell id="c1uVNCo_Iyz2JjiFWo5f-127" value="" style="ellipse;html=1;shape=endState;fillColor=#000000;strokeColor=#ff0000;" vertex="1" parent="c1uVNCo_Iyz2JjiFWo5f-60">
          <mxGeometry x="285" y="310" width="30" height="30" as="geometry" />
        </mxCell>
        <mxCell id="c1uVNCo_Iyz2JjiFWo5f-128" value="" style="endArrow=classic;html=1;rounded=0;exitX=1;exitY=0.5;exitDx=0;exitDy=0;entryX=1;entryY=0;entryDx=0;entryDy=0;" edge="1" parent="c1uVNCo_Iyz2JjiFWo5f-60" source="c1uVNCo_Iyz2JjiFWo5f-114">
          <mxGeometry width="50" height="50" relative="1" as="geometry">
            <mxPoint x="405" y="230" as="sourcePoint" />
            <mxPoint x="460" y="270" as="targetPoint" />
            <Array as="points">
              <mxPoint x="460" y="225" />
            </Array>
          </mxGeometry>
        </mxCell>
        <mxCell id="c1uVNCo_Iyz2JjiFWo5f-131" value="False" style="text;html=1;strokeColor=none;fillColor=none;align=center;verticalAlign=middle;whiteSpace=wrap;rounded=0;" vertex="1" parent="c1uVNCo_Iyz2JjiFWo5f-60">
          <mxGeometry x="400" y="240" width="60" height="10" as="geometry" />
        </mxCell>
        <mxCell id="c1uVNCo_Iyz2JjiFWo5f-133" value="Generar seguimiento" style="rounded=0;whiteSpace=wrap;html=1;" vertex="1" parent="c1uVNCo_Iyz2JjiFWo5f-60">
          <mxGeometry x="400" y="270" width="120" height="30" as="geometry" />
        </mxCell>
        <mxCell id="c1uVNCo_Iyz2JjiFWo5f-135" value="Generar notificacion" style="rounded=0;whiteSpace=wrap;html=1;" vertex="1" parent="c1uVNCo_Iyz2JjiFWo5f-60">
          <mxGeometry x="400" y="320" width="120" height="30" as="geometry" />
        </mxCell>
        <mxCell id="c1uVNCo_Iyz2JjiFWo5f-137" value="" style="endArrow=classic;html=1;rounded=0;exitX=0.5;exitY=1;exitDx=0;exitDy=0;entryX=0.5;entryY=0;entryDx=0;entryDy=0;" edge="1" parent="c1uVNCo_Iyz2JjiFWo5f-60" source="c1uVNCo_Iyz2JjiFWo5f-133" target="c1uVNCo_Iyz2JjiFWo5f-135">
          <mxGeometry width="50" height="50" relative="1" as="geometry">
            <mxPoint x="570" y="550" as="sourcePoint" />
            <mxPoint x="620" y="500" as="targetPoint" />
          </mxGeometry>
        </mxCell>
        <mxCell id="c1uVNCo_Iyz2JjiFWo5f-140" value="" style="endArrow=classic;html=1;rounded=0;exitX=0.5;exitY=1;exitDx=0;exitDy=0;" edge="1" parent="c1uVNCo_Iyz2JjiFWo5f-60" source="c1uVNCo_Iyz2JjiFWo5f-135">
          <mxGeometry width="50" height="50" relative="1" as="geometry">
            <mxPoint x="440" y="430" as="sourcePoint" />
            <mxPoint x="460" y="370" as="targetPoint" />
          </mxGeometry>
        </mxCell>
        <mxCell id="c1uVNCo_Iyz2JjiFWo5f-143" value="" style="shape=image;html=1;verticalAlign=top;verticalLabelPosition=bottom;labelBackgroundColor=#ffffff;imageAspect=0;aspect=fixed;image=https://cdn4.iconfinder.com/data/icons/ionicons/512/icon-ios7-refresh-128.png" vertex="1" parent="c1uVNCo_Iyz2JjiFWo5f-60">
          <mxGeometry x="442.75" y="370" width="34.5" height="34.5" as="geometry" />
        </mxCell>
        <mxCell id="c1uVNCo_Iyz2JjiFWo5f-144" value="Recargar vista" style="text;html=1;strokeColor=none;fillColor=none;align=center;verticalAlign=middle;whiteSpace=wrap;rounded=0;" vertex="1" parent="c1uVNCo_Iyz2JjiFWo5f-60">
          <mxGeometry x="380.5" y="374.5" width="60" height="30" as="geometry" />
        </mxCell>
        <mxCell id="c1uVNCo_Iyz2JjiFWo5f-147" value="" style="swimlane;startSize=0;" vertex="1" parent="c1uVNCo_Iyz2JjiFWo5f-60">
          <mxGeometry x="355" y="440" width="210" height="200" as="geometry" />
        </mxCell>
        <mxCell id="c1uVNCo_Iyz2JjiFWo5f-139" value="&lt;font color=&quot;#3333ff&quot;&gt;Esta funcion se encuentra en todas las vistas y verifica si alguna de las solicitudes fue aceptada, en ese caso crear amistad y borra los registros de seguimientos y notificaciones&amp;nbsp;&lt;/font&gt;" style="text;html=1;strokeColor=none;fillColor=none;align=center;verticalAlign=middle;whiteSpace=wrap;rounded=0;" vertex="1" parent="c1uVNCo_Iyz2JjiFWo5f-147">
          <mxGeometry x="25" y="25" width="160" height="150" as="geometry" />
        </mxCell>
        <mxCell id="c1uVNCo_Iyz2JjiFWo5f-148" value="" style="endArrow=classic;html=1;rounded=0;exitX=0.5;exitY=1;exitDx=0;exitDy=0;entryX=0.5;entryY=0;entryDx=0;entryDy=0;" edge="1" parent="c1uVNCo_Iyz2JjiFWo5f-60" source="c1uVNCo_Iyz2JjiFWo5f-143" target="c1uVNCo_Iyz2JjiFWo5f-147">
          <mxGeometry width="50" height="50" relative="1" as="geometry">
            <mxPoint x="450" y="500" as="sourcePoint" />
            <mxPoint x="460" y="420" as="targetPoint" />
          </mxGeometry>
        </mxCell>
        <mxCell id="c1uVNCo_Iyz2JjiFWo5f-75" value="Accion: user_a siguio a user_b" style="rounded=0;whiteSpace=wrap;html=1;fillColor=#dae8fc;strokeColor=#6c8ebf;" vertex="1" parent="c1uVNCo_Iyz2JjiFWo5f-60">
          <mxGeometry x="315" y="20" width="220" height="60" as="geometry" />
        </mxCell>
        <mxCell id="c1uVNCo_Iyz2JjiFWo5f-101" value="Amigos" style="swimlane;fontStyle=0;childLayout=stackLayout;horizontal=1;startSize=30;horizontalStack=0;resizeParent=1;resizeParentMax=0;resizeLast=0;collapsible=1;marginBottom=0;whiteSpace=wrap;html=1;" vertex="1" parent="1">
          <mxGeometry x="880" y="430" width="185" height="120" as="geometry" />
        </mxCell>
        <mxCell id="c1uVNCo_Iyz2JjiFWo5f-102" value="user_a es amigo de user_b" style="text;strokeColor=none;fillColor=none;align=left;verticalAlign=middle;spacingLeft=4;spacingRight=4;overflow=hidden;points=[[0,0.5],[1,0.5]];portConstraint=eastwest;rotatable=0;whiteSpace=wrap;html=1;" vertex="1" parent="c1uVNCo_Iyz2JjiFWo5f-101">
          <mxGeometry y="30" width="185" height="30" as="geometry" />
        </mxCell>
        <mxCell id="c1uVNCo_Iyz2JjiFWo5f-103" value="..." style="text;strokeColor=none;fillColor=none;align=left;verticalAlign=middle;spacingLeft=4;spacingRight=4;overflow=hidden;points=[[0,0.5],[1,0.5]];portConstraint=eastwest;rotatable=0;whiteSpace=wrap;html=1;" vertex="1" parent="c1uVNCo_Iyz2JjiFWo5f-101">
          <mxGeometry y="60" width="185" height="30" as="geometry" />
        </mxCell>
        <mxCell id="c1uVNCo_Iyz2JjiFWo5f-104" value="..." style="text;strokeColor=none;fillColor=none;align=left;verticalAlign=middle;spacingLeft=4;spacingRight=4;overflow=hidden;points=[[0,0.5],[1,0.5]];portConstraint=eastwest;rotatable=0;whiteSpace=wrap;html=1;" vertex="1" parent="c1uVNCo_Iyz2JjiFWo5f-101">
          <mxGeometry y="90" width="185" height="30" as="geometry" />
        </mxCell>
        <mxCell id="c1uVNCo_Iyz2JjiFWo5f-106" value="Seguimiento" style="swimlane;fontStyle=0;childLayout=stackLayout;horizontal=1;startSize=30;horizontalStack=0;resizeParent=1;resizeParentMax=0;resizeLast=0;collapsible=1;marginBottom=0;whiteSpace=wrap;html=1;" vertex="1" parent="1">
          <mxGeometry x="880" y="280" width="185" height="120" as="geometry">
            <mxRectangle x="390" y="230" width="110" height="30" as="alternateBounds" />
          </mxGeometry>
        </mxCell>
        <mxCell id="c1uVNCo_Iyz2JjiFWo5f-107" value="1 siguio a 2" style="text;strokeColor=none;fillColor=none;align=left;verticalAlign=middle;spacingLeft=4;spacingRight=4;overflow=hidden;points=[[0,0.5],[1,0.5]];portConstraint=eastwest;rotatable=0;whiteSpace=wrap;html=1;" vertex="1" parent="c1uVNCo_Iyz2JjiFWo5f-106">
          <mxGeometry y="30" width="185" height="30" as="geometry" />
        </mxCell>
        <mxCell id="c1uVNCo_Iyz2JjiFWo5f-108" value="56 siguio a 123" style="text;strokeColor=none;fillColor=none;align=left;verticalAlign=middle;spacingLeft=4;spacingRight=4;overflow=hidden;points=[[0,0.5],[1,0.5]];portConstraint=eastwest;rotatable=0;whiteSpace=wrap;html=1;" vertex="1" parent="c1uVNCo_Iyz2JjiFWo5f-106">
          <mxGeometry y="60" width="185" height="30" as="geometry" />
        </mxCell>
        <mxCell id="c1uVNCo_Iyz2JjiFWo5f-109" value="220 siguio a 32" style="text;strokeColor=none;fillColor=none;align=left;verticalAlign=middle;spacingLeft=4;spacingRight=4;overflow=hidden;points=[[0,0.5],[1,0.5]];portConstraint=eastwest;rotatable=0;whiteSpace=wrap;html=1;" vertex="1" parent="c1uVNCo_Iyz2JjiFWo5f-106">
          <mxGeometry y="90" width="185" height="30" as="geometry" />
        </mxCell>
        <mxCell id="c1uVNCo_Iyz2JjiFWo5f-134" value="" style="endArrow=classic;html=1;rounded=0;exitX=1;exitY=0.5;exitDx=0;exitDy=0;entryX=0.007;entryY=0.203;entryDx=0;entryDy=0;strokeColor=#3333FF;entryPerimeter=0;" edge="1" parent="1" source="c1uVNCo_Iyz2JjiFWo5f-133" target="c1uVNCo_Iyz2JjiFWo5f-106">
          <mxGeometry width="50" height="50" relative="1" as="geometry">
            <mxPoint x="770" y="310" as="sourcePoint" />
            <mxPoint x="820" y="260" as="targetPoint" />
            <Array as="points">
              <mxPoint x="810" y="305" />
            </Array>
          </mxGeometry>
        </mxCell>
        <mxCell id="c1uVNCo_Iyz2JjiFWo5f-136" value="" style="endArrow=classic;html=1;rounded=0;exitX=1;exitY=0.5;exitDx=0;exitDy=0;entryX=0;entryY=0.25;entryDx=0;entryDy=0;strokeColor=#3333FF;" edge="1" parent="1" source="c1uVNCo_Iyz2JjiFWo5f-135" target="c1uVNCo_Iyz2JjiFWo5f-37">
          <mxGeometry width="50" height="50" relative="1" as="geometry">
            <mxPoint x="770" y="360" as="sourcePoint" />
            <mxPoint x="1120" y="330" as="targetPoint" />
            <Array as="points">
              <mxPoint x="810" y="355" />
              <mxPoint x="810" y="160" />
            </Array>
          </mxGeometry>
        </mxCell>
        <mxCell id="c1uVNCo_Iyz2JjiFWo5f-153" value="" style="endArrow=classic;html=1;rounded=0;exitX=1;exitY=0.75;exitDx=0;exitDy=0;" edge="1" parent="1" source="c1uVNCo_Iyz2JjiFWo5f-147">
          <mxGeometry width="50" height="50" relative="1" as="geometry">
            <mxPoint x="900" y="670" as="sourcePoint" />
            <mxPoint x="960" y="610" as="targetPoint" />
          </mxGeometry>
        </mxCell>
        <mxCell id="c1uVNCo_Iyz2JjiFWo5f-154" value="" style="whiteSpace=wrap;html=1;aspect=fixed;" vertex="1" parent="1">
          <mxGeometry x="960" y="600" width="20" height="20" as="geometry" />
        </mxCell>
        <mxCell id="c1uVNCo_Iyz2JjiFWo5f-155" value="" style="endArrow=classic;html=1;rounded=0;exitX=1;exitY=0;exitDx=0;exitDy=0;entryX=1;entryY=0.25;entryDx=0;entryDy=0;fillColor=#f8cecc;strokeColor=#FF0000;" edge="1" parent="1" source="c1uVNCo_Iyz2JjiFWo5f-154" target="c1uVNCo_Iyz2JjiFWo5f-37">
          <mxGeometry width="50" height="50" relative="1" as="geometry">
            <mxPoint x="1000" y="620" as="sourcePoint" />
            <mxPoint x="1120" y="600" as="targetPoint" />
            <Array as="points">
              <mxPoint x="1120" y="600" />
              <mxPoint x="1120" y="160" />
            </Array>
          </mxGeometry>
        </mxCell>
        <mxCell id="c1uVNCo_Iyz2JjiFWo5f-158" value="" style="endArrow=classic;html=1;rounded=0;exitX=1;exitY=0;exitDx=0;exitDy=0;entryX=1.002;entryY=0.062;entryDx=0;entryDy=0;entryPerimeter=0;fillColor=#f8cecc;strokeColor=#FF0000;" edge="1" parent="1" target="c1uVNCo_Iyz2JjiFWo5f-107">
          <mxGeometry width="50" height="50" relative="1" as="geometry">
            <mxPoint x="980" y="610" as="sourcePoint" />
            <mxPoint x="1065" y="170" as="targetPoint" />
            <Array as="points">
              <mxPoint x="1130" y="610" />
              <mxPoint x="1130" y="312" />
            </Array>
          </mxGeometry>
        </mxCell>
        <mxCell id="c1uVNCo_Iyz2JjiFWo5f-159" value="" style="endArrow=classic;html=1;rounded=0;exitX=1;exitY=0;exitDx=0;exitDy=0;entryX=0.998;entryY=-0.105;entryDx=0;entryDy=0;entryPerimeter=0;fillColor=#f8cecc;strokeColor=#0000FF;" edge="1" parent="1" target="c1uVNCo_Iyz2JjiFWo5f-102">
          <mxGeometry width="50" height="50" relative="1" as="geometry">
            <mxPoint x="980" y="620" as="sourcePoint" />
            <mxPoint x="1065" y="322" as="targetPoint" />
            <Array as="points">
              <mxPoint x="1140" y="620" />
              <mxPoint x="1140" y="457" />
            </Array>
          </mxGeometry>
        </mxCell>
      </root>
    </mxGraphModel>
  </diagram>
</mxfile>
